<?xml version="1.0" encoding="UTF-8" standalone="no"?><!DOCTYPE svg PUBLIC "-//W3C//DTD SVG 1.1//EN" "http://www.w3.org/Graphics/SVG/1.1/DTD/svg11.dtd"><svg width="100%" height="100%" viewBox="0 0 3400 3400" version="1.1" xmlns="http://www.w3.org/2000/svg" xmlns:xlink="http://www.w3.org/1999/xlink" xml:space="preserve" xmlns:serif="http://www.serif.com/" style="fill-rule:evenodd;clip-rule:evenodd;stroke-linecap:round;stroke-linejoin:round;"><rect id="Artboard1" x="0" y="0" width="3400" height="3400" style="fill:none;"/><clipPath id="_clip1"><rect id="Artboard11" serif:id="Artboard1" x="0" y="0" width="3400" height="3400"/></clipPath><g clip-path="url(#_clip1)"><path d="M3400,1287.283l0,825.433c0,710.471 -576.812,1287.283 -1287.283,1287.283l-825.433,0c-710.471,0 -1287.283,-576.812 -1287.283,-1287.283l0,-825.433c0,-710.471 576.812,-1287.283 1287.283,-1287.283l825.433,0c710.471,0 1287.283,576.812 1287.283,1287.283Z" style="fill:var(--primary, #0061d6);"/><path d="M1063.465,2681.729l1273.07,0" style="fill:none;fill-rule:nonzero;stroke:#fff;stroke-width:291.36px;"/><path d="M1063.465,719.271l1273.07,0" style="fill:none;fill-rule:nonzero;stroke:#fff;stroke-width:291.36px;"/><path d="M732.132,1063.465l0,1273.07" style="fill:none;fill-rule:nonzero;stroke:#fff;stroke-width:291.36px;"/><path d="M2666.868,1063.465l0,1273.07" style="fill:none;fill-rule:nonzero;stroke:#fff;stroke-width:291.36px;"/><path d="M1148.294,2220.218l559.706,-520.218l-559.706,-520.218" style="fill:none;fill-rule:nonzero;stroke:#fff;stroke-width:180.11px;"/><path d="M2262.092,2220.218l-497.554,0" style="fill:none;fill-rule:nonzero;stroke:#fff;stroke-width:167.5px;"/><path d="M2086.034,1179.782l0,342.905" style="fill:none;fill-rule:nonzero;stroke:#fff;stroke-opacity:0.79;stroke-width:96.74px;"/><path d="M2211.284,1179.782l0,342.905" style="fill:none;fill-rule:nonzero;stroke:#fff;stroke-opacity:0.51;stroke-width:96.74px;"/><path d="M1960.783,1179.782l0,342.905" style="fill:none;fill-rule:nonzero;stroke:#fff;stroke-width:96.74px;"/><path d="M2336.535,1179.782l0,342.905" style="fill:none;fill-rule:nonzero;stroke:#fff;stroke-opacity:0.22;stroke-width:96.74px;"/></g></svg>