<?xml version="1.0" encoding="UTF-8" standalone="no"?><!DOCTYPE svg PUBLIC "-//W3C//DTD SVG 1.1//EN" "http://www.w3.org/Graphics/SVG/1.1/DTD/svg11.dtd"><svg width="100%" height="100%" viewBox="0 0 3400 3400" version="1.1" xmlns="http://www.w3.org/2000/svg" xmlns:xlink="http://www.w3.org/1999/xlink" xml:space="preserve" xmlns:serif="http://www.serif.com/" style="fill-rule:evenodd;clip-rule:evenodd;stroke-linecap:round;stroke-linejoin:round;"><rect id="Artboard1" x="0" y="0" width="3400" height="3400" style="fill:none;"/><clipPath id="_clip1"><rect id="Artboard11" serif:id="Artboard1" x="0" y="0" width="3400" height="3400"/></clipPath><g clip-path="url(#_clip1)"><path d="M3400,850l0,1700c0,469.128 -380.872,850 -850,850l-1700,0c-469.128,0 -850,-380.872 -850,-850l0,-1700c0,-469.128 380.872,-850 850,-850l1700,0c469.128,0 850,380.872 850,850Z" style="fill:#006ffc;"/><path d="M1444.743,2485.084l1029.862,0" style="fill:none;fill-rule:nonzero;stroke:#fff;stroke-width:259.59px;"/><path d="M1444.743,914.916l1029.862,0" style="fill:none;fill-rule:nonzero;stroke:#fff;stroke-width:259.59px;"/><path d="M2727.653,1176.61l0,1046.779" style="fill:none;fill-rule:nonzero;stroke:#fff;stroke-width:259.59px;"/><path d="M2061.236,1355.844l0,688.313" style="fill:none;fill-rule:nonzero;stroke:#fff;stroke-opacity:0.71;stroke-width:187.42px;"/><path d="M1826.056,1355.844l0,688.313" style="fill:none;fill-rule:nonzero;stroke:#fff;stroke-width:187.42px;"/><path d="M2296.415,1355.844l0,688.313" style="fill:none;fill-rule:nonzero;stroke:#fff;stroke-opacity:0.49;stroke-width:187.42px;"/><path d="M672.347,2485.084l772.397,-785.084l-772.397,-785.084" style="fill:none;fill-rule:nonzero;stroke:#fff;stroke-width:259.59px;"/></g></svg>